<svg width="150" height="150" viewBox="0 0 150 150" fill="none" xmlns="http://www.w3.org/2000/svg">
<mask id="path-1-outside-1_586_8" maskUnits="userSpaceOnUse" x="0" y="17.4805" width="150" height="116" fill="black">
<rect fill="white" y="17.4805" width="150" height="116"/>
<path d="M30.3157 70.5887L29.2413 67.826L23.946 70.0515L25.0205 72.8142C28.7808 82.8675 35.4575 91.5394 44.2829 97.7556C52.4943 103.511 62.0871 106.888 72.1404 107.425L70.9893 101.363C52.6478 99.8276 36.6853 87.7791 30.3157 70.6655V70.5887ZM146.274 37.6661C145.429 35.2871 144.432 33.1383 143.281 31.2198C138.829 24.0827 131.462 19.2479 123.942 18.5572C123.635 18.5572 123.328 18.5572 123.02 18.5572C122.714 18.5572 122.484 18.5572 122.253 18.5572C104.525 18.5572 102.223 43.1149 100.995 56.3913V57.2356C100.842 58.003 100.765 58.7704 100.688 59.5378C99.7681 70.1283 98.9236 79.7978 98.0793 90.0046L97.2352 100.135C96.4678 109.65 92.4005 109.958 91.94 109.958C85.2634 109.958 84.8797 98.9835 84.6494 93.0743C84.6494 92.3836 84.6494 91.9231 84.6494 91.4627C84.4192 87.1652 84.189 81.3327 83.882 75.2701V74.8863C83.4216 65.5237 82.9611 55.8541 82.6541 50.5589C82.2704 43.3451 77.2821 39.3545 72.6776 39.0476C68.8404 38.8173 64.0057 41.1196 62.6243 48.5636C62.0871 51.4031 61.8569 56.3913 61.7034 59.6146V59.9215C61.7034 60.5355 61.7034 61.0727 61.6267 61.5331V61.9168C60.9359 73.8119 58.5569 76.3445 56.6384 76.3445C51.3431 76.3445 50.8059 67.9028 50.4989 63.3749C50.4989 62.6075 50.4222 61.9936 50.3455 61.5331C49.1176 51.8635 47.5828 42.5009 42.8248 34.2895C35.3807 21.5502 27.9367 18.4805 22.5646 18.4805C17.1927 18.4805 21.3368 18.4805 20.7996 18.5572C12.7416 19.5549 8.13706 26.6152 5.75804 32.2942C2.6116 39.7382 1 48.4869 1 58.2332C1 67.9795 2.91856 77.7258 6.83243 86.7814C10.5928 95.5301 15.8881 103.358 22.7181 110.034C29.4715 116.788 37.4527 122.006 46.2014 125.767C55.3338 129.604 65.0033 131.523 74.9799 131.523C84.9564 131.523 94.626 129.604 103.758 125.767C112.583 122.083 120.488 116.788 127.241 110.034C133.995 103.281 139.367 95.4534 143.127 86.7814C146.351 79.2607 148.269 71.0492 148.806 62.3005C149.42 52.4775 148.576 44.4195 146.274 37.6661ZM137.372 84.3257C133.995 92.3069 129.084 99.5207 122.868 105.66C116.651 111.8 109.438 116.634 101.303 120.011C92.9376 123.541 84.1122 125.306 74.9031 125.306C65.694 125.306 56.8686 123.541 48.5037 120.011C40.4457 116.634 33.2318 111.8 26.939 105.66C20.7228 99.5207 15.8114 92.3069 12.4346 84.3257C8.90449 76.0375 7.13941 67.2888 7.13941 58.2332C7.13941 49.1776 8.36729 43.1149 10.9765 36.208C13.2788 30.2989 15.5811 25.3106 21.4135 24.6199C21.7972 24.6199 22.1809 24.6199 22.5646 24.6199C31.8505 24.6199 37.9899 37.9731 39.1411 40.5824C41.9805 47.2589 43.8224 53.8588 44.5131 60.1517C44.6666 61.1494 44.7433 62.3005 44.8201 63.4516C45.434 70.4352 46.2014 79.1072 53.2617 81.9466C55.1803 82.714 57.4058 82.5605 59.5546 81.5629C62.2406 80.335 64.3894 77.8793 65.2336 75.0398C66.5382 70.8957 66.8451 65.5237 67.1521 59.9215C67.2288 58.2332 67.3823 56.6216 67.4591 54.8565V54.703C67.6893 51.9403 68.1497 45.4171 71.6032 45.0334C71.68 45.0334 71.7567 45.0334 71.8335 45.0334C74.9031 45.0334 75.7473 50.252 75.9008 50.8659C76.7449 56.7751 76.8984 60.5355 77.0519 65.2935C77.2054 73.4282 77.7426 81.7931 78.203 89.7744L78.3565 92.844C78.3565 93.6883 78.4332 94.5325 78.51 95.3766C78.5867 97.3719 78.7402 99.3672 78.8937 101.363C79.1239 103.588 79.5076 105.583 79.9682 107.118V107.425C80.3519 108.269 80.6589 109.191 81.0426 110.034L81.2728 110.495C81.81 111.493 82.3472 112.413 82.9611 113.258C84.3425 115.099 86.1843 116.404 88.2563 117.018C89.3308 117.325 90.5586 117.555 91.7865 117.555C93.0144 117.555 101.149 117.172 103.221 102.82C103.298 102.207 103.374 101.592 103.528 100.979C103.682 100.288 103.758 99.5207 103.835 98.83V98.5998L103.989 98.523C104.449 98.2161 104.833 97.9858 105.217 97.6789C113.965 91.4627 120.641 82.8675 124.402 72.8142L125.4 70.0515L120.105 67.9028L119.106 70.6655C116.268 78.263 111.509 85.0164 105.217 90.2348L104.449 90.8488V89.8511C104.756 85.8605 104.909 81.9466 105.14 77.956L105.447 71.8933C105.984 62.3773 106.444 52.5542 108.439 43.0381C110.281 34.136 113.505 24.0827 122.484 24.4664C129.774 24.7734 135.453 30.3756 138.293 35.5173C141.976 42.194 142.437 50.7124 142.437 58.1565C142.437 65.6004 140.672 76.0375 137.142 84.2489L137.372 84.3257Z"/>
</mask>
<path d="M30.3157 70.5887L29.2413 67.826L23.946 70.0515L25.0205 72.8142C28.7808 82.8675 35.4575 91.5394 44.2829 97.7556C52.4943 103.511 62.0871 106.888 72.1404 107.425L70.9893 101.363C52.6478 99.8276 36.6853 87.7791 30.3157 70.6655V70.5887ZM146.274 37.6661C145.429 35.2871 144.432 33.1383 143.281 31.2198C138.829 24.0827 131.462 19.2479 123.942 18.5572C123.635 18.5572 123.328 18.5572 123.02 18.5572C122.714 18.5572 122.484 18.5572 122.253 18.5572C104.525 18.5572 102.223 43.1149 100.995 56.3913V57.2356C100.842 58.003 100.765 58.7704 100.688 59.5378C99.7681 70.1283 98.9236 79.7978 98.0793 90.0046L97.2352 100.135C96.4678 109.65 92.4005 109.958 91.94 109.958C85.2634 109.958 84.8797 98.9835 84.6494 93.0743C84.6494 92.3836 84.6494 91.9231 84.6494 91.4627C84.4192 87.1652 84.189 81.3327 83.882 75.2701V74.8863C83.4216 65.5237 82.9611 55.8541 82.6541 50.5589C82.2704 43.3451 77.2821 39.3545 72.6776 39.0476C68.8404 38.8173 64.0057 41.1196 62.6243 48.5636C62.0871 51.4031 61.8569 56.3913 61.7034 59.6146V59.9215C61.7034 60.5355 61.7034 61.0727 61.6267 61.5331V61.9168C60.9359 73.8119 58.5569 76.3445 56.6384 76.3445C51.3431 76.3445 50.8059 67.9028 50.4989 63.3749C50.4989 62.6075 50.4222 61.9936 50.3455 61.5331C49.1176 51.8635 47.5828 42.5009 42.8248 34.2895C35.3807 21.5502 27.9367 18.4805 22.5646 18.4805C17.1927 18.4805 21.3368 18.4805 20.7996 18.5572C12.7416 19.5549 8.13706 26.6152 5.75804 32.2942C2.6116 39.7382 1 48.4869 1 58.2332C1 67.9795 2.91856 77.7258 6.83243 86.7814C10.5928 95.5301 15.8881 103.358 22.7181 110.034C29.4715 116.788 37.4527 122.006 46.2014 125.767C55.3338 129.604 65.0033 131.523 74.9799 131.523C84.9564 131.523 94.626 129.604 103.758 125.767C112.583 122.083 120.488 116.788 127.241 110.034C133.995 103.281 139.367 95.4534 143.127 86.7814C146.351 79.2607 148.269 71.0492 148.806 62.3005C149.42 52.4775 148.576 44.4195 146.274 37.6661ZM137.372 84.3257C133.995 92.3069 129.084 99.5207 122.868 105.66C116.651 111.8 109.438 116.634 101.303 120.011C92.9376 123.541 84.1122 125.306 74.9031 125.306C65.694 125.306 56.8686 123.541 48.5037 120.011C40.4457 116.634 33.2318 111.8 26.939 105.66C20.7228 99.5207 15.8114 92.3069 12.4346 84.3257C8.90449 76.0375 7.13941 67.2888 7.13941 58.2332C7.13941 49.1776 8.36729 43.1149 10.9765 36.208C13.2788 30.2989 15.5811 25.3106 21.4135 24.6199C21.7972 24.6199 22.1809 24.6199 22.5646 24.6199C31.8505 24.6199 37.9899 37.9731 39.1411 40.5824C41.9805 47.2589 43.8224 53.8588 44.5131 60.1517C44.6666 61.1494 44.7433 62.3005 44.8201 63.4516C45.434 70.4352 46.2014 79.1072 53.2617 81.9466C55.1803 82.714 57.4058 82.5605 59.5546 81.5629C62.2406 80.335 64.3894 77.8793 65.2336 75.0398C66.5382 70.8957 66.8451 65.5237 67.1521 59.9215C67.2288 58.2332 67.3823 56.6216 67.4591 54.8565V54.703C67.6893 51.9403 68.1497 45.4171 71.6032 45.0334C71.68 45.0334 71.7567 45.0334 71.8335 45.0334C74.9031 45.0334 75.7473 50.252 75.9008 50.8659C76.7449 56.7751 76.8984 60.5355 77.0519 65.2935C77.2054 73.4282 77.7426 81.7931 78.203 89.7744L78.3565 92.844C78.3565 93.6883 78.4332 94.5325 78.51 95.3766C78.5867 97.3719 78.7402 99.3672 78.8937 101.363C79.1239 103.588 79.5076 105.583 79.9682 107.118V107.425C80.3519 108.269 80.6589 109.191 81.0426 110.034L81.2728 110.495C81.81 111.493 82.3472 112.413 82.9611 113.258C84.3425 115.099 86.1843 116.404 88.2563 117.018C89.3308 117.325 90.5586 117.555 91.7865 117.555C93.0144 117.555 101.149 117.172 103.221 102.82C103.298 102.207 103.374 101.592 103.528 100.979C103.682 100.288 103.758 99.5207 103.835 98.83V98.5998L103.989 98.523C104.449 98.2161 104.833 97.9858 105.217 97.6789C113.965 91.4627 120.641 82.8675 124.402 72.8142L125.4 70.0515L120.105 67.9028L119.106 70.6655C116.268 78.263 111.509 85.0164 105.217 90.2348L104.449 90.8488V89.8511C104.756 85.8605 104.909 81.9466 105.14 77.956L105.447 71.8933C105.984 62.3773 106.444 52.5542 108.439 43.0381C110.281 34.136 113.505 24.0827 122.484 24.4664C129.774 24.7734 135.453 30.3756 138.293 35.5173C141.976 42.194 142.437 50.7124 142.437 58.1565C142.437 65.6004 140.672 76.0375 137.142 84.2489L137.372 84.3257Z" fill="white"/>
<path d="M30.3157 70.5887L29.2413 67.826L23.946 70.0515L25.0205 72.8142C28.7808 82.8675 35.4575 91.5394 44.2829 97.7556C52.4943 103.511 62.0871 106.888 72.1404 107.425L70.9893 101.363C52.6478 99.8276 36.6853 87.7791 30.3157 70.6655V70.5887ZM146.274 37.6661C145.429 35.2871 144.432 33.1383 143.281 31.2198C138.829 24.0827 131.462 19.2479 123.942 18.5572C123.635 18.5572 123.328 18.5572 123.02 18.5572C122.714 18.5572 122.484 18.5572 122.253 18.5572C104.525 18.5572 102.223 43.1149 100.995 56.3913V57.2356C100.842 58.003 100.765 58.7704 100.688 59.5378C99.7681 70.1283 98.9236 79.7978 98.0793 90.0046L97.2352 100.135C96.4678 109.65 92.4005 109.958 91.94 109.958C85.2634 109.958 84.8797 98.9835 84.6494 93.0743C84.6494 92.3836 84.6494 91.9231 84.6494 91.4627C84.4192 87.1652 84.189 81.3327 83.882 75.2701V74.8863C83.4216 65.5237 82.9611 55.8541 82.6541 50.5589C82.2704 43.3451 77.2821 39.3545 72.6776 39.0476C68.8404 38.8173 64.0057 41.1196 62.6243 48.5636C62.0871 51.4031 61.8569 56.3913 61.7034 59.6146V59.9215C61.7034 60.5355 61.7034 61.0727 61.6267 61.5331V61.9168C60.9359 73.8119 58.5569 76.3445 56.6384 76.3445C51.3431 76.3445 50.8059 67.9028 50.4989 63.3749C50.4989 62.6075 50.4222 61.9936 50.3455 61.5331C49.1176 51.8635 47.5828 42.5009 42.8248 34.2895C35.3807 21.5502 27.9367 18.4805 22.5646 18.4805C17.1927 18.4805 21.3368 18.4805 20.7996 18.5572C12.7416 19.5549 8.13706 26.6152 5.75804 32.2942C2.6116 39.7382 1 48.4869 1 58.2332C1 67.9795 2.91856 77.7258 6.83243 86.7814C10.5928 95.5301 15.8881 103.358 22.7181 110.034C29.4715 116.788 37.4527 122.006 46.2014 125.767C55.3338 129.604 65.0033 131.523 74.9799 131.523C84.9564 131.523 94.626 129.604 103.758 125.767C112.583 122.083 120.488 116.788 127.241 110.034C133.995 103.281 139.367 95.4534 143.127 86.7814C146.351 79.2607 148.269 71.0492 148.806 62.3005C149.42 52.4775 148.576 44.4195 146.274 37.6661ZM137.372 84.3257C133.995 92.3069 129.084 99.5207 122.868 105.66C116.651 111.8 109.438 116.634 101.303 120.011C92.9376 123.541 84.1122 125.306 74.9031 125.306C65.694 125.306 56.8686 123.541 48.5037 120.011C40.4457 116.634 33.2318 111.8 26.939 105.66C20.7228 99.5207 15.8114 92.3069 12.4346 84.3257C8.90449 76.0375 7.13941 67.2888 7.13941 58.2332C7.13941 49.1776 8.36729 43.1149 10.9765 36.208C13.2788 30.2989 15.5811 25.3106 21.4135 24.6199C21.7972 24.6199 22.1809 24.6199 22.5646 24.6199C31.8505 24.6199 37.9899 37.9731 39.1411 40.5824C41.9805 47.2589 43.8224 53.8588 44.5131 60.1517C44.6666 61.1494 44.7433 62.3005 44.8201 63.4516C45.434 70.4352 46.2014 79.1072 53.2617 81.9466C55.1803 82.714 57.4058 82.5605 59.5546 81.5629C62.2406 80.335 64.3894 77.8793 65.2336 75.0398C66.5382 70.8957 66.8451 65.5237 67.1521 59.9215C67.2288 58.2332 67.3823 56.6216 67.4591 54.8565V54.703C67.6893 51.9403 68.1497 45.4171 71.6032 45.0334C71.68 45.0334 71.7567 45.0334 71.8335 45.0334C74.9031 45.0334 75.7473 50.252 75.9008 50.8659C76.7449 56.7751 76.8984 60.5355 77.0519 65.2935C77.2054 73.4282 77.7426 81.7931 78.203 89.7744L78.3565 92.844C78.3565 93.6883 78.4332 94.5325 78.51 95.3766C78.5867 97.3719 78.7402 99.3672 78.8937 101.363C79.1239 103.588 79.5076 105.583 79.9682 107.118V107.425C80.3519 108.269 80.6589 109.191 81.0426 110.034L81.2728 110.495C81.81 111.493 82.3472 112.413 82.9611 113.258C84.3425 115.099 86.1843 116.404 88.2563 117.018C89.3308 117.325 90.5586 117.555 91.7865 117.555C93.0144 117.555 101.149 117.172 103.221 102.82C103.298 102.207 103.374 101.592 103.528 100.979C103.682 100.288 103.758 99.5207 103.835 98.83V98.5998L103.989 98.523C104.449 98.2161 104.833 97.9858 105.217 97.6789C113.965 91.4627 120.641 82.8675 124.402 72.8142L125.4 70.0515L120.105 67.9028L119.106 70.6655C116.268 78.263 111.509 85.0164 105.217 90.2348L104.449 90.8488V89.8511C104.756 85.8605 104.909 81.9466 105.14 77.956L105.447 71.8933C105.984 62.3773 106.444 52.5542 108.439 43.0381C110.281 34.136 113.505 24.0827 122.484 24.4664C129.774 24.7734 135.453 30.3756 138.293 35.5173C141.976 42.194 142.437 50.7124 142.437 58.1565C142.437 65.6004 140.672 76.0375 137.142 84.2489L137.372 84.3257Z" stroke="white" stroke-width="2" mask="url(#path-1-outside-1_586_8)"/>
</svg>
