<svg width="150" height="150" viewBox="0 0 150 150" fill="none" xmlns="http://www.w3.org/2000/svg">
<path fill-rule="evenodd" clip-rule="evenodd" d="M124.116 25.3731C125.29 26.5416 125.295 28.4411 124.127 29.6157L62.2691 91.8008C65.8064 94.4889 70.2153 96.0815 75 96.0815C86.6335 96.0815 96.0644 86.6507 96.0644 75.0172C96.0644 73.4411 95.8918 71.9078 95.5651 70.4342C95.2064 68.8167 95.9641 67.0865 97.5137 66.5V66.5C99.0632 65.9135 100.813 66.6919 101.223 68.2971C101.773 70.4481 102.064 72.7002 102.064 75.0172C102.064 89.9644 89.9472 102.082 75 102.082C68.5656 102.082 62.6521 99.8332 58.0085 96.084L49.0143 105.126C57.1031 109.27 65.9587 112.034 75 112.034C90.6538 112.034 105.727 103.335 117.105 93.8841C122.749 89.1959 127.37 84.4164 130.562 80.6439C132.16 78.7547 133.374 77.1492 134.17 75.9605C134.433 75.5666 134.638 75.238 134.79 74.9747C134.592 74.605 134.307 74.1215 133.922 73.5293C132.978 72.0735 131.545 70.1219 129.661 67.8697C126.346 63.9046 121.712 59.0993 116.047 54.5113C114.759 53.4686 114.498 51.5899 115.5 50.2703V50.2703C116.502 48.9506 118.387 48.69 119.677 49.7304C125.749 54.6295 130.706 59.7652 134.264 64.0208C136.268 66.4175 137.854 68.5646 138.956 70.2639C139.504 71.1088 139.96 71.884 140.29 72.5504C140.455 72.8818 140.611 73.2305 140.732 73.5766C140.832 73.8634 141 74.3967 141 75.0172C141 75.6225 140.839 76.1326 140.742 76.4072C140.627 76.7328 140.48 77.0508 140.332 77.3421C140.033 77.9273 139.629 78.5909 139.156 79.2983C138.202 80.7232 136.841 82.5112 135.142 84.5194C131.739 88.5416 126.871 93.5721 120.939 98.4995C109.165 108.279 92.7389 118.034 75 118.034C64.0907 118.034 53.6866 114.495 44.5879 109.576L29.6269 124.616C28.4584 125.79 26.5589 125.795 25.3843 124.627C24.2096 123.458 24.2046 121.559 25.3731 120.384L87.4243 58.0048C83.9403 55.4553 79.6475 53.9528 75 53.9528C63.3665 53.9528 53.9356 63.3836 53.9356 75.0172C53.9356 76.5821 54.1058 78.1048 54.428 79.5687C54.7842 81.1869 54.0238 82.9159 52.4734 83.5V83.5C50.9229 84.0841 49.1748 83.3031 48.767 81.6972C48.2238 79.5583 47.9356 77.3198 47.9356 75.0172C47.9356 60.0699 60.0528 47.9528 75 47.9528C81.2974 47.9528 87.096 50.1064 91.6934 53.7131L100.804 44.5545C92.9778 40.6182 84.2595 38 75 38C58.0638 38 42.9767 46.3605 31.9881 55.5369C26.5174 60.1054 22.1481 64.8067 19.1689 68.6164C17.6766 70.5245 16.5631 72.1707 15.84 73.4316C15.477 74.0647 15.2381 74.5561 15.0986 74.9041C15.0864 74.9345 15.0755 74.9625 15.0657 74.9884C15.0892 75.045 15.1188 75.1127 15.1558 75.1922C15.3634 75.6381 15.71 76.2566 16.2206 77.0395C17.2368 78.5979 18.7772 80.6175 20.7927 82.9151C24.345 86.9649 29.2665 91.7575 35.152 96.2755C36.4662 97.2844 36.7727 99.1563 35.8033 100.5V100.5C34.8339 101.844 32.9557 102.15 31.6398 101.143C25.3581 96.3374 20.1025 91.2272 16.282 86.8717C14.1347 84.4237 12.4065 82.1752 11.1947 80.3169C10.5913 79.3915 10.0841 78.5144 9.71632 77.7244C9.39864 77.0419 9 76.0481 9 75.0172C9 74.1341 9.28331 73.2855 9.52929 72.6718C9.80533 71.9832 10.1852 71.2313 10.6352 70.4467C11.5381 68.8723 12.8275 66.9854 14.4425 64.9202C17.6779 60.783 22.3413 55.7758 28.1423 50.9315C39.6971 41.2822 56.11 32 75 32C86.1186 32 96.3668 35.3588 105.239 40.096L119.873 25.3843C121.042 24.2096 122.941 24.2046 124.116 25.3731ZM135.068 75.5572C135.079 75.5876 135.075 75.5833 135.066 75.5497C135.067 75.5526 135.067 75.555 135.068 75.5572Z" fill="#BCFC45"/>
</svg>
