<?xml version="1.0" encoding="UTF-8"?>
<svg id="a" xmlns="http://www.w3.org/2000/svg" viewBox="0 0 345.86 97.58">
  <defs>
    <style>
      .b {
        fill: #fff;
      }
    </style>
  </defs>
  <path class="b" d="m341.74,44.91c.25-.08.45-.22.58-.42.13-.2.2-.46.2-.76,0-.39-.12-.7-.36-.92-.24-.22-.58-.33-1.01-.33h-1.89v4.01h.76v-1.49h.84l.02.03.82,1.46h.87l-.91-1.55.07-.02h.01Zm-.75-.51h-.96v-1.34h.96c.24,0,.43.06.55.18.13.12.2.28.2.48,0,.21-.07.38-.2.5s-.32.18-.55.18Zm2.88-1.74c-.31-.55-.74-1-1.27-1.32s-1.12-.49-1.74-.49-1.21.16-1.74.49c-.53.32-.96.77-1.27,1.32s-.47,1.17-.47,1.82.16,1.26.47,1.82c.31.55.74,1,1.27,1.32s1.12.49,1.74.49,1.21-.16,1.74-.49c.53-.32.96-.76,1.27-1.32.31-.55.47-1.17.47-1.82s-.16-1.26-.47-1.82Zm-.42,3.38c-.27.48-.64.86-1.09,1.14-.46.28-.96.42-1.5.42s-1.04-.14-1.5-.42-.83-.66-1.09-1.14c-.27-.48-.4-1-.4-1.56s.14-1.08.4-1.56c.27-.48.64-.86,1.09-1.14.46-.28.96-.42,1.5-.42s1.04.14,1.5.42.82.66,1.09,1.14.4,1,.4,1.56-.14,1.08-.4,1.56Z"/>
  <path class="b" d="m345.19.69v-.69H67.53l-5.75,41.5h-1.12L54.93,0H0v97.45l320.85.13h.68l.07-58.32h24.25V.69h-.67ZM51.25,4.23l5.71,41.37h8.53l5.71-41.37h47.54v89.14h-33.95l4.29-30.87h-4.25l-4.28,30.87h-38.68l-4.29-30.87h-4.25l4.29,30.87H3.74V4.23h47.51Zm141.08,35.04v18.93h-32.38v4.09h32.38v31.08h-69.71V4.23h69.71v30.95h-32.38v4.09h32.38Zm125.27-4.09v58.19h-44.67v-58.19h-24.26V4.23h93.25v30.95h-24.32Zm-68.93,23.02v-18.93h20.23v18.93h-20.23Zm20.22,4.09v31.08h-72.61V4.23h48.43v58.06h24.18Z"/>
</svg>