<svg width="150" height="150" viewBox="0 0 150 150" fill="none" xmlns="http://www.w3.org/2000/svg">
<path d="M145.163 34.7948C143.795 31.9913 140.827 26.6833 136.296 22.6163C131.571 18.3699 126.331 16.5981 121.142 17.4877C112.537 18.9605 107.76 27.5206 105.674 32.4922C102.153 40.8953 100.546 61.2601 99.1328 79.2252C98.5646 86.4171 98.0338 93.2129 97.4282 98.5359L97.3236 99.4629C96.1648 110.079 93.9818 111.126 91.6567 111.312C88.5467 111.559 87.1785 106.206 86.8197 104.554C83.9788 91.299 83.3807 77.3262 82.805 63.8095C82.7377 62.2395 82.6705 60.677 82.6032 59.107C82.5658 58.3445 82.5658 57.4847 82.5583 56.5801C82.5359 51.474 82.506 44.4838 76.6597 41.142C74.2973 39.7888 71.6283 39.5197 69.1612 40.3795C66.3203 41.3663 63.9803 43.7213 62.7392 46.8313C61.1618 50.7787 61.0197 55.0774 60.9001 58.8753V58.95C60.8627 60.0789 60.8403 61.2078 60.8179 62.3442C60.773 64.7963 60.7282 67.1214 60.5338 69.4464V69.5212C60.302 72.2051 60.0478 75.2404 58.4704 76.7281C57.5658 77.5804 56.0033 78.0066 54.9492 77.2365C51.3008 74.575 50.5906 68.2129 49.9626 62.5984C49.7757 60.9387 49.6038 59.3612 49.3496 57.9183C47.032 44.3941 43.5407 30.7428 33.762 22.5116C28.1773 17.8092 20.8433 17.4653 14.1447 21.5921C5.50239 26.9225 0.941982 37.0676 0.20185 52.6178C-0.0299081 57.4399 0.0672809 61.761 0.500893 65.843C2.4372 84.1743 11.0721 101.1 24.8131 113.503C38.584 125.928 56.392 132.769 74.9551 132.769C82.6779 132.769 90.2811 131.595 97.5478 129.285C111.199 124.941 123.714 116.478 132.79 105.451C135.564 102.087 138.031 98.4611 140.117 94.6857C144.931 85.9985 148.146 76.1824 149.417 66.2915C150.935 54.5018 149.462 43.6091 145.156 34.7948H145.163ZM143.219 65.4916C142.045 74.6049 139.085 83.651 134.652 91.6504C132.745 95.0894 130.495 98.4013 127.961 101.474C119.64 111.582 108.164 119.342 95.6489 123.327C89.0924 125.412 81.9303 126.519 74.9477 126.519C57.9396 126.519 41.6193 120.246 28.9997 108.86C16.5819 97.6612 8.46292 81.7371 6.71351 65.1851C6.31728 61.4246 6.22757 57.41 6.44437 52.9094C7.07984 39.5795 10.6684 31.0792 17.4267 26.9225C18.8846 26.0254 21.1274 24.9787 23.6767 24.9787C25.5981 24.9787 27.6914 25.5768 29.7398 27.3038C37.9785 34.2416 41.0736 46.6295 43.1893 58.9874C43.4061 60.2583 43.5706 61.7386 43.75 63.3086C44.4827 69.8651 45.3947 78.0215 51.2709 82.3053C54.68 84.7874 59.5096 84.3612 62.7691 81.296C66.0885 78.1635 66.4847 73.4835 66.7688 70.0595V69.9847C66.9856 67.4503 67.038 64.9234 67.0828 62.4787C67.1053 61.3798 67.1202 60.2733 67.1576 59.1743V59.0996C67.2697 55.6531 67.3894 52.0945 68.5556 49.1713C69.1088 47.7808 70.1331 46.6818 71.2321 46.3005C71.9946 46.0314 72.7572 46.1286 73.5646 46.5846C76.084 48.0275 76.2934 51.6534 76.3158 56.6175C76.3158 57.5894 76.3233 58.5089 76.3606 59.3986C76.4279 60.9611 76.4952 62.5236 76.5625 64.0861C77.1531 77.857 77.7587 92.099 80.7117 105.87C82.2967 113.264 86.259 117.577 91.4025 117.577C91.6492 117.577 91.9034 117.57 92.1576 117.548C101.263 116.815 102.774 106.991 103.446 101.033C104.994 100.091 106.497 99.0592 107.932 97.9453C109.644 96.622 111.304 95.1567 112.866 93.5942C114.399 92.0616 115.879 90.3944 117.262 88.6301C118.623 86.9031 119.924 85.0415 121.127 83.1127C122.316 81.2138 123.445 79.1803 124.484 77.087C125.508 75.0311 126.473 72.8406 127.347 70.5978L121.524 68.3176C120.709 70.3959 119.819 72.407 118.885 74.3059C117.935 76.2198 116.903 78.0664 115.827 79.8008C114.743 81.5427 113.569 83.2174 112.35 84.7649C111.117 86.3349 109.801 87.8152 108.448 89.1758C107.125 90.4991 105.727 91.7326 104.284 92.8615C104.65 88.817 105.002 84.3537 105.368 79.7186C106.676 63.0843 108.306 42.383 111.438 34.9144C112.717 31.8642 116.328 24.6573 122.196 23.6555C131.467 22.0705 138.278 34.9444 139.541 37.546C143.309 45.2539 144.58 54.9279 143.219 65.4991V65.4916Z" fill="white"/>
<path d="M73.9309 102.379C71.6582 102.289 69.4154 102.072 67.2847 101.736C65.1914 101.407 63.1355 100.958 61.1767 100.39C59.2554 99.8368 57.3714 99.1639 55.5921 98.3864C53.8352 97.6238 52.1232 96.7342 50.4934 95.7548C48.8935 94.7904 47.331 93.6989 45.8508 92.5252C44.3929 91.3589 42.9725 90.0805 41.6418 88.7124C40.326 87.3592 39.0476 85.8939 37.8514 84.3463C36.6702 82.8137 35.5338 81.169 34.4722 79.442C33.4255 77.7375 32.4237 75.9208 31.4967 74.0293C30.6071 72.2201 29.7623 70.2988 28.9922 68.3176L23.1684 70.5978C24.0057 72.736 24.9178 74.8218 25.8822 76.7805C26.8989 78.8514 27.9979 80.8475 29.1492 82.7165C30.323 84.6304 31.5864 86.4621 32.9022 88.1666C34.2404 89.9085 35.6758 91.5607 37.1636 93.0859C38.6812 94.6334 40.2886 96.0913 41.9483 97.422C43.6379 98.7677 45.4246 100.009 47.2563 101.123C49.1178 102.244 51.084 103.261 53.0951 104.136C55.1286 105.018 57.2667 105.788 59.4498 106.416C61.6552 107.051 63.9653 107.56 66.3128 107.926C68.6902 108.3 71.1648 108.539 73.6842 108.636C73.744 108.636 73.8337 108.636 73.9534 108.636C74.4842 108.636 75.5757 108.614 76.7419 108.576C76.1364 106.132 75.7102 104.083 75.4037 102.356C74.5888 102.379 74.0281 102.386 73.9309 102.379Z" fill="white"/>
</svg>
