<svg width="150" height="150" viewBox="0 0 150 150" xmlns="http://www.w3.org/2000/svg">
<g>
<path d="M29.7199 70.2158L28.6307 67.415L23.2624 69.6712L24.3517 72.472C28.1639 82.6639 34.9326 91.4554 43.8797 97.7573C52.2044 103.592 61.9295 107.016 72.1214 107.56L70.9544 101.414C52.36 99.8579 36.1774 87.6432 29.7199 70.2936V70.2158ZM147.277 36.8392C146.421 34.4274 145.41 32.249 144.243 30.304C139.73 23.0685 132.261 18.167 124.637 17.4668C124.326 17.4668 124.015 17.4668 123.703 17.4668C123.392 17.4668 123.159 17.4668 122.925 17.4668C104.953 17.4668 102.619 42.3631 101.374 55.8226V56.6785C101.219 57.4565 101.141 58.2345 101.063 59.0125C100.13 69.749 99.2739 79.5519 98.418 89.8994L97.5622 100.169C96.7842 109.816 92.6608 110.128 92.194 110.128C85.4253 110.128 85.0363 99.0021 84.8029 93.0114C84.8029 92.3112 84.8029 91.8444 84.8029 91.3776C84.5695 87.0208 84.3361 81.1079 84.0249 74.9617V74.5726C83.5581 65.0809 83.0913 55.278 82.7801 49.9098C82.3911 42.5965 77.334 38.5509 72.666 38.2397C68.7759 38.0063 63.8745 40.3403 62.4741 47.887C61.9295 50.7656 61.6961 55.8226 61.5405 59.0903V59.4015C61.5405 60.0239 61.5405 60.5685 61.4627 61.0353V61.4243C60.7624 73.4834 58.3506 76.0509 56.4056 76.0509C51.0373 76.0509 50.4927 67.4928 50.1815 62.9025C50.1815 62.1245 50.1037 61.5021 50.0259 61.0353C48.7811 51.2324 47.2251 41.7407 42.4015 33.416C34.8548 20.5011 27.3081 17.389 21.862 17.389C16.416 17.389 20.6172 17.389 20.0726 17.4668C11.9035 18.4782 7.23548 25.6359 4.82365 31.3932C1.63382 38.9399 0 47.8092 0 57.6899C0 67.5706 1.94502 77.4513 5.91286 86.6318C9.7251 95.5011 15.0934 103.437 22.0176 110.205C28.8641 117.052 36.9554 122.342 45.8247 126.155C55.083 130.045 64.8859 131.99 75 131.99C85.1141 131.99 94.917 130.045 104.175 126.155C113.122 122.42 121.136 117.052 127.982 110.205C134.829 103.359 140.275 95.4233 144.087 86.6318C147.355 79.0073 149.3 70.6826 149.844 61.8133C150.467 51.8548 149.611 43.6857 147.277 36.8392ZM138.252 84.1422C134.829 92.2334 129.85 99.5467 123.548 105.771C117.246 111.995 109.933 116.896 101.686 120.32C93.2054 123.898 84.2583 125.688 74.9222 125.688C65.5861 125.688 56.639 123.898 48.1587 120.32C39.9896 116.896 32.6763 111.995 26.2967 105.771C19.9948 99.5467 15.0156 92.2334 11.5923 84.1422C8.01349 75.7397 6.22407 66.8704 6.22407 57.6899C6.22407 48.5094 7.46888 42.3631 10.1141 35.361C12.4481 29.3704 14.7822 24.3133 20.695 23.6131C21.084 23.6131 21.473 23.6131 21.862 23.6131C31.2759 23.6131 37.5 37.1504 38.667 39.7957C41.5456 46.5643 43.4129 53.2552 44.1131 59.6349C44.2687 60.6463 44.3465 61.8133 44.4243 62.9803C45.0467 70.0602 45.8247 78.8517 52.9824 81.7303C54.9274 82.5083 57.1836 82.3527 59.362 81.3413C62.0851 80.0965 64.2635 77.6069 65.1193 74.7282C66.4419 70.527 66.7531 65.0809 67.0643 59.4015C67.1421 57.6899 67.2977 56.0561 67.3755 54.2666V54.111C67.6089 51.3102 68.0757 44.6971 71.5768 44.3081C71.6546 44.3081 71.7324 44.3081 71.8102 44.3081C74.9222 44.3081 75.778 49.5986 75.9336 50.221C76.7894 56.2117 76.945 60.0239 77.1006 64.8475C77.2562 73.0944 77.8008 81.5747 78.2676 89.666L78.4232 92.778C78.4232 93.6339 78.501 94.4897 78.5788 95.3455C78.6566 97.3683 78.8122 99.3911 78.9678 101.414C79.2012 103.67 79.5902 105.693 80.0571 107.249V107.56C80.4461 108.416 80.7573 109.35 81.1463 110.205L81.3797 110.672C81.9243 111.684 82.4689 112.617 83.0913 113.473C84.4917 115.34 86.3589 116.663 88.4595 117.285C89.5488 117.597 90.7936 117.83 92.0384 117.83C93.2832 117.83 101.53 117.441 103.631 102.892C103.709 102.27 103.786 101.647 103.942 101.025C104.098 100.325 104.175 99.5467 104.253 98.8465V98.6131L104.409 98.5353C104.876 98.2241 105.265 97.9907 105.654 97.6795C114.523 91.3776 121.291 82.6639 125.104 72.472L126.115 69.6712L120.747 67.4928L119.735 70.2936C116.857 77.9959 112.033 84.8424 105.654 90.1328L104.876 90.7552V89.7438C105.187 85.6982 105.342 81.7303 105.576 77.6847L105.887 71.5384C106.432 61.8911 106.898 51.9326 108.921 42.2853C110.788 33.2604 114.056 23.0685 123.159 23.4575C130.55 23.7687 136.307 29.4482 139.186 34.6608C142.92 41.4295 143.387 50.0654 143.387 57.6121C143.387 65.1587 141.598 75.7397 138.019 84.0643L138.252 84.1422Z" fill="white"/>
</g>
</svg>
