<?xml version="1.0" encoding="UTF-8"?>
<svg id="a" data-name="Layer 1" xmlns="http://www.w3.org/2000/svg" viewBox="0 0 200.64 158.08">
  <defs>
    <style>
      .b {
        fill: #fff;
      }
    </style>
  </defs>
  <path class="b" d="m194.17,25.14c-1.83-3.75-5.8-10.85-11.86-16.29-6.32-5.68-13.33-8.05-20.27-6.86-11.51,1.97-17.9,13.42-20.69,20.07-4.71,11.24-6.86,38.48-8.75,62.51-.76,9.62-1.47,18.71-2.28,25.83l-.14,1.24c-1.55,14.2-4.47,15.6-7.58,15.85-4.16.33-5.99-6.83-6.47-9.04-3.8-17.73-4.6-36.42-5.37-54.5-.09-2.1-.18-4.19-.27-6.29-.05-1.02-.05-2.17-.06-3.38-.03-6.83-.07-16.18-7.89-20.65-3.16-1.81-6.73-2.17-10.03-1.02-3.8,1.32-6.93,4.47-8.59,8.63-2.11,5.28-2.3,11.03-2.46,16.11v.1c-.05,1.51-.08,3.02-.11,4.54-.06,3.28-.12,6.39-.38,9.5v.1c-.31,3.59-.65,7.65-2.76,9.64-1.21,1.14-3.3,1.71-4.71.68-4.88-3.56-5.83-12.07-6.67-19.58-.25-2.22-.48-4.33-.82-6.26-3.1-18.09-7.77-36.35-20.85-47.36-7.47-6.29-17.28-6.75-26.24-1.23C7.36,14.61,1.26,28.18.27,48.98c-.31,6.45-.18,12.23.4,17.69,2.59,24.52,14.14,47.16,32.52,63.75,18.42,16.62,42.24,25.77,67.07,25.77,10.33,0,20.5-1.57,30.22-4.66,18.26-5.81,35-17.13,47.14-31.88,3.71-4.5,7.01-9.35,9.8-14.4,6.44-11.62,10.74-24.75,12.44-37.98,2.03-15.77.06-30.34-5.7-42.13Zm-2.6,41.06c-1.57,12.19-5.53,24.29-11.46,34.99-2.55,4.6-5.56,9.03-8.95,13.14-11.13,13.52-26.48,23.9-43.22,29.23-8.77,2.79-18.35,4.27-27.69,4.27-22.75,0-44.58-8.39-61.46-23.62-16.61-14.98-27.47-36.28-29.81-58.42-.53-5.03-.65-10.4-.36-16.42h0c.85-17.83,5.65-29.2,14.69-34.76,1.95-1.2,4.95-2.6,8.36-2.6,2.57,0,5.37.8,8.11,3.11,11.02,9.28,15.16,25.85,17.99,42.38.29,1.7.51,3.68.75,5.78.98,8.77,2.2,19.68,10.06,25.41,4.56,3.32,11.02,2.75,15.38-1.35,4.44-4.19,4.97-10.45,5.35-15.03v-.1c.29-3.39.36-6.77.42-10.04.03-1.47.05-2.95.1-4.42v-.1c.15-4.61.31-9.37,1.87-13.28.74-1.86,2.11-3.33,3.58-3.84,1.02-.36,2.04-.23,3.12.38,3.37,1.93,3.65,6.78,3.68,13.42,0,1.3.01,2.53.06,3.72.09,2.09.18,4.18.27,6.27.79,18.42,1.6,37.47,5.55,55.89,2.12,9.89,7.42,15.66,14.3,15.66.33,0,.67-.01,1.01-.04,12.18-.98,14.2-14.12,15.1-22.09,2.07-1.26,4.08-2.64,6-4.13,2.29-1.77,4.51-3.73,6.6-5.82,2.05-2.05,4.03-4.28,5.88-6.64,1.82-2.31,3.56-4.8,5.17-7.38,1.59-2.54,3.1-5.26,4.49-8.06,1.37-2.75,2.66-5.68,3.83-8.68l-7.79-3.05c-1.09,2.78-2.28,5.47-3.53,8.01-1.27,2.56-2.65,5.03-4.09,7.35-1.45,2.33-3.02,4.57-4.65,6.64-1.65,2.1-3.41,4.08-5.22,5.9-1.77,1.77-3.64,3.42-5.57,4.93.49-5.41.96-11.38,1.45-17.58,1.75-22.25,3.93-49.94,8.12-59.93,1.71-4.08,6.54-13.72,14.39-15.06,12.4-2.12,21.51,15.1,23.2,18.58,5.04,10.31,6.74,23.25,4.92,37.39Z"/>
  <path class="b" d="m98.89,115.54c-3.04-.12-6.04-.41-8.89-.86-2.8-.44-5.55-1.04-8.17-1.8-2.57-.74-5.09-1.64-7.47-2.68-2.35-1.02-4.64-2.21-6.82-3.52-2.14-1.29-4.23-2.75-6.21-4.32-1.95-1.56-3.85-3.27-5.63-5.1-1.76-1.81-3.47-3.77-5.07-5.84-1.58-2.05-3.1-4.25-4.52-6.56-1.4-2.28-2.74-4.71-3.98-7.24-1.19-2.42-2.32-4.99-3.35-7.64l-7.79,3.05c1.12,2.86,2.34,5.65,3.63,8.27,1.36,2.77,2.83,5.44,4.37,7.94,1.57,2.56,3.26,5.01,5.02,7.29,1.79,2.33,3.71,4.54,5.7,6.58,2.03,2.07,4.18,4.02,6.4,5.8,2.26,1.8,4.65,3.46,7.1,4.95,2.49,1.5,5.12,2.86,7.81,4.03,2.72,1.18,5.58,2.21,8.5,3.05,2.95.85,6.04,1.53,9.18,2.02,3.18.5,6.49.82,9.86.95.08,0,.2,0,.36,0,.71,0,2.17-.03,3.73-.08-.81-3.27-1.38-6.01-1.79-8.32-1.09.03-1.84.04-1.97.03Z"/>
</svg>