<svg width="150" height="150" viewBox="0 0 150 150" fill="none" xmlns="http://www.w3.org/2000/svg">
<path fill-rule="evenodd" clip-rule="evenodd" d="M15.0656 74.9885C15.0739 75.0083 15.0829 75.0294 15.0926 75.0518C15.2416 75.3951 15.4985 75.8846 15.8905 76.5198C16.6706 77.7841 17.867 79.4349 19.4565 81.3502C22.629 85.173 27.2341 89.8894 32.8704 94.4725C44.2192 103.701 59.3061 112.034 75 112.034C90.6538 112.034 105.727 103.335 117.105 93.8841C122.749 89.1958 127.37 84.4164 130.562 80.6439C132.16 78.7547 133.374 77.1492 134.17 75.9605C134.433 75.5666 134.638 75.238 134.79 74.9747C134.649 74.7108 134.459 74.3824 134.215 73.9897C133.478 72.8056 132.349 71.2052 130.849 69.3229C127.851 65.5632 123.467 60.7987 117.988 56.1249C106.971 46.727 91.8954 38 75 38C58.0638 38 42.9767 46.3605 31.9881 55.5369C26.5174 60.1054 22.1481 64.8067 19.1689 68.6164C17.6766 70.5245 16.5631 72.1707 15.84 73.4316C15.477 74.0647 15.2381 74.5561 15.0986 74.9041C15.0864 74.9345 15.0754 74.9626 15.0656 74.9885ZM28.1423 50.9315C39.6972 41.2822 56.11 32 75 32C93.9308 32 110.355 41.7268 121.882 51.5602C127.675 56.502 132.323 61.5474 135.54 65.5825C137.147 67.5975 138.42 69.3907 139.31 70.8202C139.751 71.5303 140.125 72.1937 140.4 72.777C140.537 73.0676 140.67 73.3809 140.773 73.6987C140.862 73.9709 141 74.4528 141 75.0172C141 75.6225 140.839 76.1326 140.742 76.4072C140.627 76.7328 140.48 77.0508 140.332 77.3421C140.033 77.9273 139.629 78.5909 139.156 79.2983C138.202 80.7232 136.841 82.5112 135.142 84.5194C131.739 88.5416 126.871 93.5721 120.939 98.4995C109.165 108.279 92.7389 118.034 75 118.034C57.3012 118.034 40.8881 108.725 29.0851 99.1278C23.1455 94.2981 18.2617 89.3059 14.8393 85.1819C13.1314 83.1238 11.7538 81.2416 10.7843 79.6706C10.3015 78.8881 9.88972 78.1343 9.58873 77.4409C9.3243 76.8317 9 75.9503 9 75.0172C9 74.1341 9.28331 73.2855 9.52929 72.6718C9.80533 71.9832 10.1852 71.2313 10.6352 70.4467C11.5381 68.8723 12.8275 66.9854 14.4425 64.9202C17.6779 60.783 22.3413 55.7758 28.1423 50.9315ZM75 53.9528C63.3665 53.9528 53.9356 63.3836 53.9356 75.0172C53.9356 86.6507 63.3665 96.0815 75 96.0815C86.6335 96.0815 96.0644 86.6507 96.0644 75.0172C96.0644 63.3836 86.6335 53.9528 75 53.9528ZM47.9356 75.0172C47.9356 60.0699 60.0528 47.9528 75 47.9528C89.9472 47.9528 102.064 60.0699 102.064 75.0172C102.064 89.9644 89.9472 102.082 75 102.082C60.0528 102.082 47.9356 89.9644 47.9356 75.0172Z" fill="#BCFC45"/>
</svg>
