<?xml version="1.0" encoding="UTF-8"?>
<svg id="a" data-name="Layer 1" xmlns="http://www.w3.org/2000/svg" viewBox="0 0 1359.6 616.7">
  <path d="m1121,341c-3.9-.2-17.5,0-25.5,1.2-7.7,1.2-13.4,2.9-16.9,5-3.5,2.1-5.3,4.7-5.3,7.7s.9,4.7,2.7,6.1c1.8,1.4,4.1,2.2,6.9,2.7,2.8.4,5.7.6,8.7.6s5-.2,8.7-.7c5.7-.8,11.5-2.1,16.5-4.9,4.5-2.5,8.8-7,8.8-12.7s0-4.6-4.7-4.8Zm-638.4-37.3c-10.2,0-21.5,3.5-26.4,13.3-4.3,8.8-4.5,20.1-.5,29.1,4.9,11,15.4,15,26.9,15,13.5,0,23.6-7.9,27.8-18.6,3-7.7,2.8-16.8-1.4-25.5-4.9-9.9-16-13.3-26.4-13.3Zm788.9-40.4c-.6.7-.9,1.6-.9,2.8s.1,1.4.4,1.9c.3.5.7.9,1.2,1.2.5.3,1.2.4,2,.4h7.6v-7.3h-7.6c-1.2,0-2,.3-2.7,1Zm5-22.4c-11.3,0-20.5,9.2-20.5,20.5s9.2,20.5,20.5,20.5,20.5-9.2,20.5-20.5-9.2-20.5-20.5-20.5Zm9.7,32.5h-12.5c-1.7,0-3.2-.3-4.3-.9-1.2-.6-2-1.4-2.6-2.6-.6-1.1-.9-2.4-.9-3.9s.3-2.9,1-4.1c.7-1.2,1.7-2.1,3-2.7l-4.9-9.6h4.9l4.3,8.8h7.4v-8.8h4.5v23.7ZM679.8,3.7C306.2,3.7,3.3,140.1,3.3,308.3s302.9,304.6,676.5,304.6,676.5-136.4,676.5-304.6S1053.4,3.7,679.8,3.7Zm315.1,238.6c13.1,0,23.8,6.9,23.8,15.4s-10.7,15.4-23.8,15.4-23.8-6.9-23.8-15.4,10.7-15.4,23.8-15.4Zm-743.3,67.7c0,15.3-1.1,31.6-8.3,45.4-6.6,12.6-18.2,21.9-31.1,27.3-13.2,5.6-29.9,8.4-50,8.4-29.1,0-63.2-6-79.5-33.1-8.2-13.6-9.8-32.5-9.8-48.1v-55.3c0-8.4,3.4-12.4,12.1-12.4h28.8c10.2,0,11.6,3.1,11.6,13v52.3c0,5.5.4,11,1.2,16.4,2.9,19.2,16.3,30.6,35.6,30.6s21.1-3.6,27.9-11.9c7.9-9.6,9.1-23.1,9.1-35v-52.6c0-9,3-12.7,12-12.7h27.6c9.6,0,12.9,2.5,12.9,14.3v53.4Zm147.8,70.3c0,4.5-3.7,8.2-8.2,8.2h-31.2c-4.5,0-8.2-3.7-8.2-8.2v-44.1c0-9.6.6-20.3-8.7-26.1-8.4-5.3-21-3.9-28.9,1.8-9.4,6.8-9.4,16.6-9.4,27.2v41.2c0,4.5-3.7,8.2-8.2,8.2h-31.2c-4.5,0-8.2-3.7-8.2-8.2v-91.5c0-9.9,5-12.5,11.6-12.5h18.9c4.5,0,7.4,2.8,9,6.8.5,1.3,1.2,13.5,1.2,13.5,4.7-5.6,10.9-9.9,13-11.5,10.8-8.1,24.8-11.4,38.2-11.4s20.5,1.8,27.9,5.4c7.8,3.8,12.9,9.6,16.3,16.5,5.1,10.4,6.1,23.1,6.1,34.8v49.9Zm353.9-122.4c0,4.5-1.3,8.1-6.7,8.2-17.7.3-29-.7-28.2,9.2,1,5.1,8.3,5.1,8.3,5.1h18.4c6.5,0,8.2,3.9,8.2,8.4v13.5c0,4.5-.7,8.2-8.2,8.2h-18.4c-4.5,0-8.2,3.7-8.2,8.2v65.8c0,4.5-3.7,8.2-8.2,8.2h-31.2c-4.5,0-8.2-3.7-8.2-8.2v-65.8c0-4.5-3.7-8.2-8.2-8.2h-21.6c-4.5,0-8.2,3.7-8.2,8.2h0c0-.1,0,65.6,0,65.6,0,4.5-3.7,8.2-8.2,8.2h-31.2c-4.5,0-8.2-3.7-8.2-8.2v-65.8c0-4.5-3.7-8-8.2-8h-18.4c-.5,0-.9,0-1.4-.1,2.6,6.5,3.9,13.8,3.9,22,0,13.2-3.3,24.1-10,32.7-6.7,8.6-15.9,15.1-27.6,19.4-11.8,4.3-25.4,6.5-40.8,6.5s-29-2.2-40.8-6.5c-11.8-4.3-21-10.8-27.6-19.4-6.7-8.6-10-19.6-10-32.7s3.3-24.1,10-32.8c6.7-8.7,15.9-15.2,27.6-19.4,11.8-4.3,25.4-6.4,40.8-6.4s29,2.1,40.8,6.4c11.3,4.1,20.3,10.3,26.9,18.5v-10.2c0-4.5,3.7-8.1,8.2-8.1h18.4c.6,0,1.1,0,1.6,0,2.3,0,6.3-.7,6.8-4,0-.5.2-.9.3-1.3.1-1.7.3-3.8.5-5.9,0,0,1.1-9.9,5.3-16,1.1-1.6,2.5-3.1,4.2-4.6,3.6-3.6,8-6.4,13.3-8.4.8-.3,1.6-.6,2.5-.9,0,0,0,0,.1,0,0,0,0,0,0,0,6.8-2.2,14.7-3.2,22.2-3.2,30.9,0,34-1.2,34,12v9.7c0,4.5-1.3,8.1-6.7,8.2-17.7.3-29-.7-28.2,9.2,1,5.1,8.3,5.1,8.3,5.1h0s2.6,0,2.6,0h0s19.2.2,19.2.2c4.5,0,7,.6,8.1-1.6.3-.7.4-5.2.9-9.7,0,0,1.1-9.9,5.3-16,4.2-6,10-10.4,17.3-13.2,7.4-2.8,16.4-4.1,24.9-4.1,29.8,0,34-1.2,34,12v9.7Zm52.3,125.7c0,4.5-3.7,8.2-8.2,8.2h-31.2c-4.5,0-8.2-3.7-8.2-8.2v-95.8c0-4.5,3.7-8.2,8.2-8.2h31.2c4.5,0,8.2,3.7,8.2,8.2v95.8Zm-23.8-107.3c-13.1,0-23.8-6.9-23.8-15.4s10.7-15.4,23.8-15.4,23.8,6.9,23.8,15.4-10.7,15.4-23.8,15.4Zm182.4,74.6s-.9,7.2-4.9,13.3c-4,6.1-9.5,11.1-16.5,15.1-7,4-15.2,6.9-24.4,8.8-9.3,1.9-19.2,2.9-29.6,2.9-15.4,0-29-2.2-40.8-6.5-11.8-4.3-21-10.8-27.6-19.4-6.7-8.6-10-19.6-10-32.7s3.3-24.1,10-32.8c6.7-8.7,15.9-15.2,27.6-19.4,11.8-4.3,25.4-6.4,40.8-6.4s37.8,2.8,54,12c7.1,4,12.6,9.1,16.6,15.1,4,6,4.9,12.8,4.9,12.8.6,4.5-2.6,8.1-7.1,8.1h-31.8c-2,0-4.1-.6-5.8-1.7-2-1.3-2.5-3-3.6-4.9-2.6-4.3-7.7-7.5-12.3-9.2-4.2-1.6-9.1-2.3-14.8-2.3-10.3,0-21.5,3.4-26.4,13.3-4.4,9-4.4,21.9.1,30.8,7.4,14.5,29.5,16.3,43,10.6,3.3-1.4,6.5-3.2,8.9-5.8,1-1.1,2-2.2,2.8-3.4,2.4-3.9,4.9-6.4,9.9-6.4h29.9c4.5,0,7.7,3.7,7.2,8.2Zm54.4,29.3c0,4.5-3.7,8.2-8.2,8.2h-31.2c-4.5,0-8.2-3.7-8.2-8.2v-95.8c0-4.5,3.7-8.2,8.2-8.2h31.2c4.5,0,8.2,3.7,8.2,8.2v95.8Zm217.3,0c0,4.5-3.7,8.2-8.2,8.2h-31.2c-4.5,0-8.2-3.7-8.2-8.2-4.3,9-17.6,11.8-28.2,11.3-9.4-.5-18.5-2.8-25.7-9.1-.5-.5-5.9-6-5.6-6.2,0,0-13.3,9.8-31.2,13.1-6.6,1.2-13.5,1.9-20.4,1.9-6.4,0-12.8-.5-18.8-1.4-10.8-1.7-22.6-5.8-28.4-15.6-2.6-4.3-3.8-9.9-3.8-16.7s2.4-16,7.1-21.1c4.7-5.2,11.5-9,20.3-11.5,8.8-2.5,19.2-4.1,31.3-4.8,12.1-.7,32.3-1,32.3-1,9.5-.3,8.9-2.9,9-5.6.4-6.2-4.2-8.7-9.4-10.3-8.4-2.7-17-2.9-25.6-1.7-5.3.7-11.5,1.6-13.4,6.5-.1.3-.5,3-3.3,3-7.5,0-32.7-.1-43.1-.3-.3,0-2.5,0-2.5-2.7,0-5.5,3.1-12.4,8.4-17.4,5.6-5.2,13.9-9.3,25-12.3,11.1-3,24.7-4.5,40.8-4.5s27.5,1.2,37.9,3.7c10.4,2.5,18.3,6.4,23.8,11.8,5.5,5.4,6.8,13.6,6.8,13.6.7,4.5,1.4,11.8,1.4,16.3v25.4c0,4,.6,15.3,8.7,16.8,3.2.6,6.6-1.8,6.6-8.7v-110c0-4.5,3.7-8.2,8.2-8.2h31.2c4.5,0,8.2,3.7,8.2,8.2v137.6Zm40.4-93.9c-13.7,0-24.9-11.2-24.9-24.9s11.2-24.9,24.9-24.9,24.9,11.2,24.9,24.9-11.2,24.9-24.9,24.9Z"/>
</svg>